<?xml version="1.0" standalone="no"?>
<!DOCTYPE svg PUBLIC "-//W3C//DTD SVG 20010904//EN"
 "http://www.w3.org/TR/2001/REC-SVG-20010904/DTD/svg10.dtd">
<svg version="1.0" xmlns="http://www.w3.org/2000/svg"
 width="512.000000pt" height="512.000000pt" viewBox="0 0 512.000000 512.000000"
 preserveAspectRatio="xMidYMid meet">
<metadata>
Created by potrace 1.11, written by Peter Selinger 2001-2013
</metadata>
<g transform="translate(0.000000,512.000000) scale(0.100000,-0.100000)"
fill="#000000" stroke="none">
<path d="M2331 5109 c-498 -44 -996 -247 -1386 -564 -122 -99 -334 -318 -426
-440 -455 -607 -618 -1354 -457 -2105 69 -324 244 -700 457 -985 92 -122 304
-341 426 -440 642 -521 1497 -700 2298 -480 331 90 663 261 932 480 122 99
334 318 426 440 455 607 618 1354 457 2105 -69 324 -244 700 -457 985 -92 122
-304 341 -426 440 -515 418 -1184 623 -1844 564z m407 -1685 c336 -69 606
-329 681 -656 50 -217 30 -400 -64 -595 -110 -225 -323 -403 -565 -470 -92
-25 -357 -25 -450 0 -164 45 -355 169 -460 300 -64 80 -144 240 -171 342 -30
114 -30 298 -1 418 82 334 352 596 682 662 92 18 256 18 348 -1z"/>
<path d="M2545 3073 c12 -392 28 -378 41 35 l7 212 -28 0 -27 0 7 -247z"/>
<path d="M2410 3293 c0 -22 109 -526 115 -532 10 -10 4 62 -25 278 -39 288
-35 271 -65 271 -17 0 -25 -6 -25 -17z"/>
<path d="M2665 3288 c-2 -13 -18 -126 -35 -252 -27 -201 -31 -251 -16 -235 5
6 106 475 106 494 0 26 -49 19 -55 -7z"/>
<path d="M2292 3271 c-11 -6 8 -61 83 -247 154 -378 161 -379 43 -7 -84 264
-90 277 -126 254z"/>
<path d="M2726 3062 c-38 -119 -71 -223 -74 -231 -3 -8 0 -12 8 -9 7 2 53 102
102 223 69 169 86 220 76 226 -36 23 -43 10 -112 -209z"/>
<path d="M2178 3216 c-16 -12 -5 -33 129 -247 169 -270 152 -244 159 -237 7 7
-248 490 -261 494 -6 2 -18 -3 -27 -10z"/>
<path d="M2912 3217 c-5 -7 -50 -92 -101 -189 -61 -118 -87 -178 -78 -178 11
0 164 231 230 346 9 16 -39 36 -51 21z"/>
<path d="M2075 3140 c-18 -20 -18 -21 16 -58 20 -20 102 -110 182 -199 139
-154 156 -171 158 -157 1 5 -330 434 -335 434 -2 0 -11 -9 -21 -20z"/>
<path d="M2998 3118 c-61 -76 -174 -223 -181 -234 -15 -26 45 1 71 31 15 18
63 72 106 119 l79 87 -20 20 -20 21 -35 -44z"/>
<path d="M1987 3052 c-9 -10 -17 -21 -17 -24 0 -8 397 -318 416 -325 8 -3 14
-3 14 0 0 2 -73 71 -162 152 -90 82 -179 164 -199 182 -34 32 -36 33 -52 15z"/>
<path d="M3027 2979 c-93 -85 -96 -89 -66 -89 22 0 52 17 115 66 46 36 84 69
84 73 0 4 -8 15 -17 24 -17 14 -25 9 -116 -74z"/>
<path d="M1903 2937 c-10 -22 -1 -27 213 -141 123 -65 229 -116 236 -114 11 4
-414 278 -431 278 -4 0 -12 -10 -18 -23z"/>
<path d="M3148 2928 c-27 -16 -48 -33 -48 -38 0 -18 60 -15 99 5 40 20 41 21
25 43 -19 27 -18 27 -76 -10z"/>
<path d="M1851 2819 c-5 -16 -8 -29 -5 -29 2 0 95 -29 206 -65 290 -94 303
-81 31 31 l-222 91 -10 -28z"/>
<path d="M2860 2843 c-58 -10 -163 -49 -314 -118 -240 -109 -282 -120 -451
-119 -118 1 -153 5 -225 26 -47 14 -93 28 -102 33 -17 7 -18 -5 -18 -158 l0
-165 48 -16 c220 -72 419 -76 622 -13 25 8 106 38 180 66 177 69 257 90 360
98 104 7 218 -13 338 -61 l82 -33 0 186 0 187 -87 32 c-138 50 -197 62 -308
61 -55 -1 -111 -4 -125 -6z m111 -113 c23 -13 25 -43 4 -60 -24 -20 -18 -49
15 -68 39 -22 38 -32 -2 -32 -18 0 -51 -3 -73 -7 -36 -6 -39 -5 -27 10 12 14
9 19 -20 37 -18 11 -36 20 -40 20 -3 0 -9 8 -11 18 -3 9 -5 -5 -6 -31 -1 -41
2 -49 21 -56 19 -7 12 -11 -45 -30 -69 -23 -111 -24 -69 -2 18 10 22 20 22 61
0 38 -4 50 -15 50 -42 0 22 59 91 84 46 17 128 20 155 6z m242 -3 c74 -32 142
-119 135 -175 -3 -23 -8 -27 -41 -30 -53 -4 -191 43 -233 80 -36 31 -43 63
-23 99 20 38 101 51 162 26z m-544 -80 c-20 -17 -49 -40 -63 -50 -24 -16 -27
-24 -24 -65 2 -28 8 -47 15 -47 34 0 16 -15 -48 -39 -39 -15 -73 -25 -75 -23
-2 2 5 12 16 22 22 20 28 81 8 88 -10 3 -9 8 2 22 13 17 13 18 0 10 -8 -4 -28
-17 -43 -28 -36 -24 -44 -17 -21 20 25 38 28 40 120 68 44 14 89 32 100 40 38
29 49 14 13 -18z m-745 -92 c127 -45 148 -58 144 -93 -2 -22 -9 -28 -38 -33
-19 -4 -25 -7 -14 -8 12 0 24 -10 27 -20 3 -11 20 -30 38 -41 l34 -22 -66 5
c-72 5 -100 14 -79 27 8 5 -2 22 -30 55 -27 31 -40 55 -37 67 3 10 1 16 -4 12
-18 -11 -10 -90 11 -109 33 -30 16 -28 -47 4 -64 32 -108 70 -65 57 21 -7 22
-5 22 42 0 32 -5 54 -15 62 -20 17 -19 30 3 30 9 0 62 -16 116 -35z m480 -3
c10 -17 -25 -52 -64 -63 -45 -14 -65 -4 -36 17 19 14 19 14 -2 14 -41 0 -72
-21 -72 -49 1 -24 2 -24 14 -8 7 9 18 17 23 17 6 0 13 -8 17 -17 3 -10 9 -24
12 -32 5 -11 -1 -12 -29 -7 -40 8 -52 -3 -33 -29 17 -23 67 -13 98 21 13 13
26 24 31 24 10 0 50 -41 44 -46 -11 -12 -205 -54 -246 -54 -40 1 -44 2 -28 14
12 9 17 27 17 61 0 34 -5 52 -17 61 -16 11 -13 15 28 33 25 11 83 27 130 34
108 19 107 18 113 9z"/>
<path d="M2903 2690 c6 -10 15 -16 19 -14 14 9 9 22 -11 27 -17 4 -18 2 -8
-13z"/>
<path d="M3130 2691 c-16 -31 -12 -57 16 -90 29 -35 85 -51 110 -30 23 19 11
75 -22 111 -34 34 -87 39 -104 9z m74 -37 c17 -7 22 -34 7 -34 -21 0 -41 13
-41 26 0 15 10 17 34 8z"/>
<path d="M1978 2487 c8 -9 11 -21 7 -26 -3 -7 0 -8 9 -5 22 9 20 21 -6 35 -21
11 -22 11 -10 -4z"/>
<path d="M1930 2476 c0 -2 7 -7 16 -10 8 -3 12 -2 9 4 -6 10 -25 14 -25 6z"/>
<path d="M1822 2703 c5 -27 116 -54 243 -59 l110 -4 -150 34 c-219 50 -207 49
-203 29z"/>
<path d="M2910 2433 c-18 -4 24 -25 165 -83 l190 -77 13 24 c8 14 12 26 10 28
-3 3 -319 104 -342 110 -6 1 -22 0 -36 -2z"/>
<path d="M2817 2413 c-6 -9 372 -253 391 -253 9 0 22 22 22 40 0 5 -88 55
-197 112 -229 120 -210 111 -216 101z"/>
<path d="M2750 2396 c0 -2 73 -71 163 -152 89 -81 174 -159 190 -173 26 -24
27 -24 42 -5 8 10 15 22 15 25 0 8 -389 309 -400 309 -6 0 -10 -2 -10 -4z"/>
<path d="M2716 2368 c4 -7 75 -101 157 -208 83 -107 151 -196 153 -198 4 -6
44 22 44 31 0 11 -342 387 -352 387 -5 0 -6 -6 -2 -12z"/>
<path d="M2672 2360 c14 -41 245 -470 254 -470 5 0 18 6 27 13 15 11 1 36
-126 239 -78 125 -146 228 -150 228 -5 0 -7 -4 -5 -10z"/>
<path d="M2686 2183 c30 -92 66 -207 81 -255 19 -63 31 -88 42 -88 45 1 43 13
-58 260 -54 135 -104 246 -109 248 -6 2 14 -73 44 -165z"/>
<path d="M2601 2326 c-1 -20 55 -451 65 -497 4 -21 9 -25 29 -21 14 2 25 10
25 18 0 22 -100 478 -109 499 -9 19 -10 19 -10 1z"/>
<path d="M2557 2295 c-3 -16 -9 -135 -13 -262 l-7 -233 28 0 27 0 -7 237 c-4
130 -11 248 -15 262 l-7 26 -6 -30z"/>
<path d="M2511 2289 c-11 -26 -101 -438 -101 -462 0 -8 11 -17 25 -19 29 -6
23 -32 65 276 17 121 28 221 25 224 -2 2 -9 -6 -14 -19z"/>
<path d="M2446 2263 c-7 -16 -48 -113 -90 -217 -79 -193 -81 -205 -35 -206 11
0 21 18 33 58 9 31 40 132 70 225 30 92 50 167 45 167 -5 0 -15 -12 -23 -27z"/>
<path d="M2390 2263 c-8 -2 -63 -81 -122 -176 -97 -155 -106 -173 -91 -184 9
-7 22 -13 27 -13 6 0 55 86 109 190 54 105 97 189 95 189 -2 -1 -10 -3 -18 -6z"/>
<path d="M1928 2224 c-29 -15 -32 -22 -22 -48 9 -23 22 -20 82 18 l52 33 -31
7 c-43 8 -50 7 -81 -10z"/>
<path d="M2168 2120 c-60 -65 -108 -123 -108 -127 0 -5 8 -13 19 -20 16 -10
22 -8 38 10 34 38 193 245 193 251 0 3 -8 6 -17 6 -10 0 -66 -54 -125 -120z"/>
<path d="M2056 2164 c-47 -37 -86 -70 -86 -73 0 -3 7 -14 15 -25 16 -21 18
-20 153 106 61 56 62 58 34 58 -20 0 -55 -20 -116 -66z"/>
</g>
</svg>
